<?xml version="1.0" encoding="UTF-8" standalone="no"?>
<!-- Created with Inkscape (http://www.inkscape.org/) -->

<svg
   width="43.169415mm"
   height="49.951977mm"
   viewBox="0 0 43.169415 49.951977"
   version="1.1"
   id="svg1"
   sodipodi:docname="logo.svg"
   inkscape:version="1.4.2 (ebf0e940d0, 2025-05-08)"
   xmlns:inkscape="http://www.inkscape.org/namespaces/inkscape"
   xmlns:sodipodi="http://sodipodi.sourceforge.net/DTD/sodipodi-0.dtd"
   xmlns="http://www.w3.org/2000/svg"
   xmlns:svg="http://www.w3.org/2000/svg">
  <sodipodi:namedview
     id="namedview1"
     pagecolor="#ffffff"
     bordercolor="#000000"
     borderopacity="0.25"
     inkscape:showpageshadow="2"
     inkscape:pageopacity="0.0"
     inkscape:pagecheckerboard="0"
     inkscape:deskcolor="#d1d1d1"
     inkscape:document-units="mm"
     inkscape:zoom="2.8284271"
     inkscape:cx="64.877047"
     inkscape:cy="116.49584"
     inkscape:window-width="1920"
     inkscape:window-height="1128"
     inkscape:window-x="0"
     inkscape:window-y="0"
     inkscape:window-maximized="1"
     inkscape:current-layer="layer1"
     showguides="true">
    <sodipodi:guide
       position="21.584704,49.951977"
       orientation="1,0"
       id="guide2"
       inkscape:locked="false" />
    <sodipodi:guide
       position="43.169409,24.97599"
       orientation="0,-1"
       id="guide17"
       inkscape:locked="false" />
  </sodipodi:namedview>
  <defs
     id="defs1" />
  <g
     inkscape:label="Layer 1"
     inkscape:groupmode="layer"
     id="layer1"
     transform="translate(-163.84722,-32.279165)">
    <g
       id="g9"
       transform="matrix(1.0320381,0,0,1.0320381,-5.9408932,-1.8343496)">
      <path
         style="fill:#00599c;fill-opacity:1;stroke:none;stroke-width:0.841999;stroke-linejoin:bevel;stroke-dasharray:none"
         d="m 206.34657,45.154834 -20.91464,12.100318 20.91464,12.100324 z"
         id="path9" />
      <path
         style="fill:#004482;fill-opacity:1;stroke:none;stroke-width:0.841999;stroke-linejoin:bevel;stroke-dasharray:none"
         d="M 164.51729,69.35547 185.43192,81.455795 206.34657,69.355476 185.43193,57.255152 Z"
         id="path8" />
      <path
         style="fill:#659ad2;fill-opacity:1;stroke:none;stroke-width:0.841999;stroke-linejoin:bevel;stroke-dasharray:none"
         d="M 164.51729,45.154827 V 69.35547 L 206.34657,45.154834 185.43193,33.05451 Z"
         id="path7"
         sodipodi:nodetypes="ccccc" />
    </g>
    <g
       id="g29"
       transform="translate(-0.23494909)">
      <g
         id="g19"
         transform="matrix(0.94002674,0,0,0.94002674,11.973465,3.1756734)">
        <g
           id="g20"
           transform="matrix(0.94238542,0,0,0.94238542,10.636508,3.7571435)">
          <g
             id="g18"
             transform="matrix(1.5162967,0,0,1.5162967,-96.554037,-29.560589)">
            <g
               id="text21"
               style="font-weight:bold;font-size:9.61076px;line-height:0.9;font-family:'Hack Nerd Font Mono';-inkscape-font-specification:'Hack Nerd Font Mono Bold';text-align:center;text-anchor:middle;fill:#ffffff;stroke-width:1.11945"
               aria-label="C++4R">
              <g
                 id="g28"
                 transform="matrix(1.132467,0,0,1.132467,-21.873715,-7.850449)">
                <path
                   style="font-weight:500;font-family:'Keep Calm';-inkscape-font-specification:'Keep Calm Medium';stroke:#ffffff;stroke-width:0.788865;stroke-dasharray:none"
                   d="m 179.29663,59.686611 q -0.57664,0.701586 -1.40317,1.114848 -0.81691,0.413263 -1.80682,0.413263 -0.85536,0 -1.605,-0.307544 -0.74964,-0.317156 -1.30706,-0.855358 -0.55742,-0.538203 -0.88419,-1.25901 -0.31716,-0.730417 -0.31716,-1.566553 0,-0.836137 0.31716,-1.556944 0.32677,-0.730417 0.88419,-1.26862 0.55742,-0.547813 1.30706,-0.855357 0.74964,-0.307545 1.605,-0.307545 0.98991,0 1.80682,0.413263 0.82653,0.413263 1.37434,1.076405 l -1.02835,1.057184 q -0.3556,-0.509371 -0.92263,-0.816915 -0.55743,-0.317155 -1.23018,-0.317155 -0.5382,0 -1.01874,0.211437 -0.47093,0.201826 -0.82653,0.557424 -0.35559,0.345987 -0.56703,0.816914 -0.20183,0.461317 -0.20183,0.989909 0,0.518981 0.20183,0.989908 0.21144,0.461316 0.56703,0.816914 0.3556,0.345988 0.82653,0.557424 0.48054,0.201826 1.01874,0.201826 0.7112,0 1.25901,-0.317155 0.54781,-0.326765 0.91302,-0.855357 z"
                   id="path23" />
                <path
                   style="font-weight:500;font-size:6.24699px;font-family:'Keep Calm';-inkscape-font-specification:'Keep Calm Medium';baseline-shift:sub;stroke-width:1.11944"
                   d="m 183.26972,61.112368 h -1.33685 v 1.405573 h -0.93081 v -1.405573 h -1.3306 v -0.930801 h 1.3306 v -1.405573 h 0.93081 v 1.405573 h 1.33685 z m 4.28544,0 h -1.33685 v 1.405573 h -0.93081 v -1.405573 h -1.3306 v -0.930801 h 1.3306 v -1.405573 h 0.93081 v 1.405573 h 1.33685 z"
                   id="path24" />
                <path
                   style="font-weight:500;font-size:6.24699px;font-family:'Keep Calm';-inkscape-font-specification:'Keep Calm Medium';baseline-shift:super;stroke-width:1.11944"
                   d="m 186.93671,56.145527 h -0.70591 v 1.08073 h -0.95579 v -1.08073 h -2.30514 v -0.687169 l 2.43008,-3.223447 h 0.83085 v 3.079767 h 0.70591 z m -1.6617,-0.830849 v -1.6617 l -1.26814,1.655453 z"
                   id="path25" />
                <path
                   style="font-weight:500;font-family:'Keep Calm';-inkscape-font-specification:'Keep Calm Medium';stroke:#ffffff;stroke-width:0.788865;stroke-dasharray:none"
                   d="m 194.02802,61.07056 h -1.64344 l -0.54781,-1.749158 q -0.0865,-0.288323 -0.22105,-0.528592 -0.12494,-0.240269 -0.30754,-0.413262 -0.18261,-0.172994 -0.4421,-0.269102 -0.24988,-0.09611 -0.59587,-0.09611 h -0.55742 v 3.056221 h -1.47045 V 53.39156 l 3.037,-0.0096 q 0.49015,0 0.91303,0.172993 0.42287,0.163383 0.73041,0.461317 0.30755,0.297933 0.48054,0.701585 0.173,0.403652 0.173,0.874579 0,0.336377 -0.10572,0.653532 -0.10572,0.317155 -0.29794,0.586256 -0.19221,0.269102 -0.46131,0.480538 -0.25949,0.201826 -0.57665,0.307545 0.36521,0.13455 0.59587,0.394041 0.23066,0.24988 0.36521,0.605478 0.0673,0.163383 0.12494,0.326766 0.0577,0.163382 0.11533,0.345987 0.0673,0.172994 0.13455,0.38443 0.0769,0.201826 0.16338,0.451706 0.10572,0.317155 0.19221,0.547813 0.0961,0.221048 0.20183,0.394041 z m -1.95098,-5.372414 q 0,-0.269102 -0.10572,-0.490149 -0.0961,-0.221047 -0.2691,-0.38443 -0.173,-0.163383 -0.41327,-0.24988 -0.23065,-0.09611 -0.49976,-0.09611 h -1.0764 v 2.393079 h 1.0764 q 0.26911,0 0.49976,-0.07689 0.24027,-0.0865 0.41327,-0.240269 0.17299,-0.153772 0.2691,-0.365208 0.10572,-0.221048 0.10572,-0.490149 z"
                   id="path26" />
              </g>
            </g>
          </g>
        </g>
      </g>
    </g>
  </g>
</svg>
